<?xml version="1.0" encoding="utf-8"?>
<!-- Generator: Adobe Illustrator 16.0.4, SVG Export Plug-In . SVG Version: 6.00 Build 0)  -->
<!DOCTYPE svg PUBLIC "-//W3C//DTD SVG 1.1//EN" "http://www.w3.org/Graphics/SVG/1.1/DTD/svg11.dtd">
<svg version="1.1" id="Layer_1" xmlns="http://www.w3.org/2000/svg" xmlns:xlink="http://www.w3.org/1999/xlink" x="0px" y="0px"
	 width="179.18px" height="145.61px" viewBox="0 0 179.18 145.61" style="enable-background:new 0 0 179.18 145.61;"
	 xml:space="preserve">
<g id="g16">
	<path id="path22" style="fill:#525454;" d="M179.18,17.23c-6.59,2.92-13.68,4.9-21.11,5.79c7.59-4.55,13.41-11.75,16.16-20.34
		c-7.1,4.21-14.97,7.27-23.34,8.92C144.18,4.46,134.63,0,124.06,0C103.75,0,87.3,16.46,87.3,36.76c0,2.88,0.32,5.69,0.95,8.38
		C57.7,43.6,30.61,28.97,12.48,6.73c-3.16,5.43-4.98,11.74-4.98,18.48c0,12.75,6.49,24,16.35,30.6c-6.03-0.19-11.69-1.84-16.65-4.6
		C7.2,51.36,7.2,51.51,7.2,51.67c0,17.81,12.67,32.67,29.49,36.05C33.61,88.55,30.36,89,27.01,89c-2.37,0-4.67-0.22-6.92-0.66
		c4.68,14.6,18.25,25.23,34.34,25.53C41.84,123.73,26,129.61,8.77,129.61c-2.96,0-5.89-0.17-8.77-0.51
		c16.27,10.43,35.59,16.51,56.35,16.51c67.61,0,104.58-56.01,104.58-104.59c0-1.59-0.04-3.17-0.1-4.75
		C168.01,31.08,174.24,24.61,179.18,17.23"/>
</g>
</svg>
