<?xml version="1.0" encoding="utf-8"?>
<!-- Generator: Adobe Illustrator 16.0.4, SVG Export Plug-In . SVG Version: 6.00 Build 0)  -->
<!DOCTYPE svg PUBLIC "-//W3C//DTD SVG 1.1//EN" "http://www.w3.org/Graphics/SVG/1.1/DTD/svg11.dtd">
<svg version="1.1"
	 id="svg2614" inkscape:output_extension="org.inkscape.output.svg.inkscape" sodipodi:docname="envelope.svg" inkscape:version="0.47 r22583" sodipodi:version="0.32" xmlns:dc="http://purl.org/dc/elements/1.1/" xmlns:cc="http://creativecommons.org/ns#" xmlns:rdf="http://www.w3.org/1999/02/22-rdf-syntax-ns#" xmlns:svg="http://www.w3.org/2000/svg" xmlns:sodipodi="http://sodipodi.sourceforge.net/DTD/sodipodi-0.dtd" xmlns:inkscape="http://www.inkscape.org/namespaces/inkscape"
	 xmlns="http://www.w3.org/2000/svg" xmlns:xlink="http://www.w3.org/1999/xlink" x="0px" y="0px" width="258.01px"
	 height="194.008px" viewBox="0 0 258.01 194.008" enable-background="new 0 0 258.01 194.008" xml:space="preserve">
<sodipodi:namedview  inkscape:window-maximized="0" inkscape:snap-page="false" inkscape:current-layer="svg2614" inkscape:window-y="-8" inkscape:window-x="-8" inkscape:window-height="582" inkscape:pageopacity="0.0" inkscape:pageshadow="2" inkscape:window-width="1024" inkscape:cy="99.00755" inkscape:cx="130" inkscape:zoom="1.3029197" showgrid="false" pagecolor="#ffffff" bordercolor="#666666" borderopacity="1.0" gridtolerance="10.0" guidetolerance="10.0" objecttolerance="10.0" id="base">
	</sodipodi:namedview>
<path id="path2625" fill="#525454" d="M0,97.004V0h129.005H258.01l-0.255,96.75L257.5,193.5l-128.75,0.254L0,194.008V97.004z
	 M203.256,144.759l-42.241-42.241l-11.758,11.641c-12.15,12.03-16.166,14.867-20.957,14.807c-4.125-0.053-5.86-1.322-19.35-14.164
	l-12.29-11.698l-41.83,41.076C31.823,166.771,13,185.648,13,186.128C13,186.619,63.766,187,129.249,187h116.249L203.256,144.759z
	 M49.249,54.751L7,12.503V97v84.497l42.249-42.249L91.497,97L49.249,54.751z M251,96.917c0-46.246-0.36-83.933-0.802-83.75
	c-0.44,0.184-19.426,19.146-42.189,42.14l-41.388,41.806l41.935,41.945C231.62,162.125,250.605,181,250.745,181
	C250.886,181,251,143.162,251,96.917z M188.108,64.753L244.718,7.5l-57.859-0.258C155.036,7.1,102.79,7.1,70.756,7.242L12.512,7.5
	l56.994,57.281c45.365,45.594,57.504,57.275,59.494,57.253C130.962,122.012,143.671,109.696,188.108,64.753z"/>
</svg>
